# xmcd
#
# Track frame offsets:
#	150
#	36901
#	51779
#	73548
#	95188
#	123744
#	143289
#	170157
#	188174
#
# Disc length: 2988 seconds
#
# Revision: 2
# Processed by: cddbd v1.5.1PL2 Copyright (c) Steve Scherf et al.
# Submitted via: EasyCDDAExtractor 8.0.2.1
#
DISCID=830baa09
DTITLE=Saxon - Kavarna Festival 08-06-05 Disc 1
DYEAR=2005
DGENRE=Hard Rock
TTITLE0=Lionheart
TTITLE1=Heavy Metal Thunder
TTITLE2=Dogs Of War
TTITLE3=Beyond The Grave
TTITLE4=The Thin Red Line
TTITLE5=Motorcycle Man
TTITLE6=Solid Ball Of Rock
TTITLE7=Dragons Lair
TTITLE8=The Eagle Has Landed
EXTD=
EXTT0=
EXTT1=
EXTT2=
EXTT3=
EXTT4=
EXTT5=
EXTT6=
EXTT7=
EXTT8=
PLAYORDER=
